<?xml version="1.0" encoding="UTF-8"?>
<!DOCTYPE svg PUBLIC "-//W3C//DTD SVG 1.1//EN" "http://www.w3.org/Graphics/SVG/1.1/DTD/svg11.dtd">
<svg xmlns="http://www.w3.org/2000/svg" version="1.1" width="512px" height="512px" style="shape-rendering:geometricPrecision; text-rendering:geometricPrecision; image-rendering:optimizeQuality; fill-rule:evenodd; clip-rule:evenodd" xmlns:xlink="http://www.w3.org/1999/xlink">
<g><path style="opacity:0.96" fill="#da380d" d="M 301.5,-0.5 C 303.5,-0.5 305.5,-0.5 307.5,-0.5C 329.106,34.226 327.273,67.5593 302,99.5C 285.356,116.819 267.523,132.652 248.5,147C 239.962,153.871 232.462,161.704 226,170.5C 222.095,179.228 221.428,188.228 224,197.5C 228.937,223.312 237.271,247.979 249,271.5C 249.692,278.392 246.859,280.225 240.5,277C 218.847,259.359 201.68,238.192 189,213.5C 179.025,190.875 180.691,169.208 194,148.5C 203.046,135.116 213.88,123.283 226.5,113C 241.167,102.333 255.833,91.6667 270.5,81C 290.822,64.8497 300.822,43.683 300.5,17.5C 300.423,12.9748 300.09,8.47485 299.5,4C 299.519,2.16698 300.185,0.666976 301.5,-0.5 Z"/></g>
<g><path style="opacity:0.956" fill="#da380d" d="M 346.5,105.5 C 353.107,103.749 355.607,106.082 354,112.5C 334.81,127.015 316.81,143.015 300,160.5C 294.185,167.297 290.685,175.13 289.5,184C 289.713,187.642 290.547,191.142 292,194.5C 296.604,202.766 301.604,210.766 307,218.5C 317.765,240.61 315.098,260.943 299,279.5C 293.469,285.366 287.635,290.866 281.5,296C 276.769,298.836 273.769,297.669 272.5,292.5C 274.96,286.62 277.127,280.62 279,274.5C 280.384,268.891 280.717,263.225 280,257.5C 274.387,248.888 268.387,240.554 262,232.5C 251.058,214.794 247.725,195.794 252,175.5C 259.604,159.892 270.77,147.392 285.5,138C 305.006,125.581 325.339,114.747 346.5,105.5 Z"/></g>
<g><path style="opacity:0.948" fill="#73a1fb" d="M 399.5,268.5 C 425.002,268.172 440.169,280.505 445,305.5C 447.262,323.813 441.095,338.646 426.5,350C 406.761,364.536 384.761,373.536 360.5,377C 357.278,375.01 356.778,372.51 359,369.5C 377.502,357.669 393.502,343.002 407,325.5C 414.337,315.335 413.503,305.835 404.5,297C 393.472,290.39 381.472,287.057 368.5,287C 365.621,285.334 364.788,282.834 366,279.5C 376.646,273.888 387.812,270.222 399.5,268.5 Z"/></g>
<g><path style="opacity:0.954" fill="#73a1fb" d="M 176.5,275.5 C 182.509,275.334 188.509,275.501 194.5,276C 197.539,279.805 196.872,282.805 192.5,285C 178.101,287.679 164.434,292.345 151.5,299C 157.906,301.253 164.573,302.586 171.5,303C 233.88,307.312 295.88,304.312 357.5,294C 359.706,296.209 360.04,298.709 358.5,301.5C 345.039,310.728 330.372,317.561 314.5,322C 280.573,330.77 246.073,334.937 211,334.5C 184.817,334.666 158.984,331.832 133.5,326C 124.062,323.7 115.896,319.2 109,312.5C 103.455,303.316 104.955,295.483 113.5,289C 118.844,285.885 124.511,283.552 130.5,282C 145.82,278.671 161.153,276.504 176.5,275.5 Z"/></g>
<g><path style="opacity:0.955" fill="#73a1fb" d="M 172.5,334.5 C 177.151,335.24 178.651,337.906 177,342.5C 174.411,344.211 171.911,346.045 169.5,348C 179.818,351.626 190.485,353.626 201.5,354C 241.171,356.148 280.338,352.648 319,343.5C 320.967,343.542 322.801,344.042 324.5,345C 331.617,349.783 338.45,354.949 345,360.5C 345.92,363.308 345.087,365.475 342.5,367C 303.549,376.473 264.049,381.973 224,383.5C 200.069,383.416 176.902,379.249 154.5,371C 148.933,368.642 144.767,364.809 142,359.5C 140.654,352.875 142.82,347.709 148.5,344C 156.25,339.91 164.25,336.744 172.5,334.5 Z"/></g>
<g><path style="opacity:0.961" fill="#73a1fb" d="M 181.5,388.5 C 189.36,387.779 191.693,390.779 188.5,397.5C 189.025,398.192 189.692,398.692 190.5,399C 227.225,406.595 263.891,406.262 300.5,398C 303.5,397.333 306.5,397.333 309.5,398C 317.833,403 326.167,408 334.5,413C 338.002,415.496 338.335,418.329 335.5,421.5C 297.519,436.554 258.186,441.721 217.5,437C 199.277,436.09 181.944,431.757 165.5,424C 156.226,417.287 154.059,408.787 159,398.5C 165.499,392.73 172.999,389.396 181.5,388.5 Z"/></g>
<g><path style="opacity:0.953" fill="#73a1fb" d="M 139.5,424.5 C 146.933,423.322 149.599,426.155 147.5,433C 139.516,434.998 131.516,436.998 123.5,439C 116.725,440.7 110.392,443.367 104.5,447C 116.433,451.521 128.766,454.521 141.5,456C 220.604,466.146 299.27,463.479 377.5,448C 387.406,446.361 396.739,443.194 405.5,438.5C 406.484,436.402 406.151,434.402 404.5,432.5C 404.986,429.591 406.653,427.925 409.5,427.5C 419.935,432.302 422.769,439.969 418,450.5C 412.064,456.889 404.898,461.389 396.5,464C 366.604,473.983 335.938,480.317 304.5,483C 244.467,487.918 184.467,487.585 124.5,482C 106.387,480.558 89.3869,475.558 73.5,467C 65.6572,460.752 63.4905,452.919 67,443.5C 71.0636,439.214 75.8969,436.048 81.5,434C 89.985,431.236 98.6517,429.236 107.5,428C 118.328,426.935 128.994,425.768 139.5,424.5 Z"/></g>
<g><path style="opacity:0.937" fill="#73a1fb" d="M 305.5,511.5 C 282.5,511.5 259.5,511.5 236.5,511.5C 206.098,509.408 175.765,505.575 145.5,500C 139.491,499.999 137.324,497.166 139,491.5C 139.75,490.874 140.584,490.374 141.5,490C 195.801,491.457 250.135,491.79 304.5,491C 344.454,491.943 382.454,483.943 418.5,467C 424.477,462.767 430.644,458.933 437,455.5C 439.853,455.834 441.353,457.501 441.5,460.5C 438.789,470.079 433.456,477.912 425.5,484C 409.192,494.994 391.192,501.661 371.5,504C 349.446,507.37 327.446,509.87 305.5,511.5 Z"/></g>
</svg>
